<svg width="72" height="80" viewBox="0 0 72 80" fill="none" xmlns="http://www.w3.org/2000/svg">
<path d="M53.3333 53.333L60 59.9997L73.3333 46.6663M70 33.3327V26.666C69.9988 25.4969 69.6902 24.3487 69.1051 23.3366C68.5201 22.3244 67.6791 21.4839 66.6667 20.8993L43.3333 7.56602C42.3199 6.98089 41.1702 6.67285 40 6.67285C38.8298 6.67285 37.6801 6.98089 36.6667 7.56602L13.3333 20.8993C12.3209 21.4839 11.4799 22.3244 10.8949 23.3366C10.3098 24.3487 10.0012 25.4969 10 26.666V53.3327C10.0012 54.5018 10.3098 55.65 10.8949 56.6621C11.4799 57.6743 12.3209 58.5148 13.3333 59.0993L36.6667 72.4327C37.6801 73.0178 38.8298 73.3258 40 73.3258C41.1702 73.3258 42.3199 73.0178 43.3333 72.4327L50 68.6327M25 14.2331L55 31.3997M10.9668 23.333L40.0001 39.9997M40.0001 39.9997L69.0335 23.333M40.0001 39.9997L40 73.333" stroke="#F0FDFA" stroke-width="4" stroke-linecap="round" stroke-linejoin="round"/>
</svg>
