<svg width="80" height="80" viewBox="0 0 80 80" fill="none" xmlns="http://www.w3.org/2000/svg">
<path d="M53.3333 26.667H33.3333C31.5652 26.667 29.8695 27.3694 28.6192 28.6196C27.369 29.8699 26.6666 31.5656 26.6666 33.3337C26.6666 35.1018 27.369 36.7975 28.6192 38.0477C29.8695 39.2979 31.5652 40.0003 33.3333 40.0003H46.6666C48.4347 40.0003 50.1304 40.7027 51.3807 41.9529C52.6309 43.2032 53.3333 44.8989 53.3333 46.667C53.3333 48.4351 52.6309 50.1308 51.3807 51.381C50.1304 52.6313 48.4347 53.3337 46.6666 53.3337H26.6666M40 60.0003V20.0003M73.3333 40.0003C73.3333 58.4098 58.4095 73.3337 40 73.3337C21.5905 73.3337 6.66663 58.4098 6.66663 40.0003C6.66663 21.5908 21.5905 6.66699 40 6.66699C58.4095 6.66699 73.3333 21.5908 73.3333 40.0003Z" stroke="#F0FDFA" stroke-width="4" stroke-linecap="round" stroke-linejoin="round"/>
</svg>
