<svg width="80" height="80" viewBox="0 0 80 80" fill="none" xmlns="http://www.w3.org/2000/svg">
<path d="M36.6667 50.0003H43.3334C45.1015 50.0003 46.7972 49.2979 48.0475 48.0477C49.2977 46.7975 50.0001 45.1018 50.0001 43.3337C50.0001 41.5656 49.2977 39.8699 48.0475 38.6196C46.7972 37.3694 45.1015 36.667 43.3334 36.667H33.3334C31.3334 36.667 29.6668 37.3337 28.6668 38.667L10.0001 56.667M23.3334 70.0004L28.6668 65.3338C29.6668 64.0004 31.3334 63.3338 33.3334 63.3338H46.6667C50.3334 63.3338 53.6667 62.0004 56.0001 59.3338L71.3334 44.6671C72.6197 43.4515 73.3704 41.7747 73.4205 40.0056C73.4705 38.2366 72.8157 36.5201 71.6001 35.2338C70.3845 33.9475 68.7077 33.1967 66.9386 33.1467C65.1696 33.0967 63.453 33.7515 62.1667 34.9671L48.1667 47.9671M6.66675 53.3337L26.6667 73.3337M63.0004 30.0007C63.0004 35.3394 58.6725 39.6673 53.3337 39.6673C47.995 39.6673 43.6671 35.3394 43.6671 30.0007C43.6671 24.6619 47.995 20.334 53.3337 20.334C58.6725 20.334 63.0004 24.6619 63.0004 30.0007ZM30.0001 16.667C30.0001 22.1898 25.5229 26.667 20.0001 26.667C14.4772 26.667 10.0001 22.1898 10.0001 16.667C10.0001 11.1441 14.4772 6.66699 20.0001 6.66699C25.5229 6.66699 30.0001 11.1441 30.0001 16.667Z" stroke="#F0FDFA" stroke-width="4" stroke-linecap="round" stroke-linejoin="round"/>
</svg>
