<svg width="40" height="40" viewBox="0 0 40 40" fill="none" xmlns="http://www.w3.org/2000/svg">
<path fill-rule="evenodd" clip-rule="evenodd" d="M12.8 4C16.5394 4 19.615 6.33915 19.8571 9.2973V12.3243H23.9429C27.4301 12.3243 30.2571 14.8654 30.2571 18C30.2571 19.4882 29.6195 20.8421 28.577 21.8544C30.0521 22.8933 31 24.5093 31 26.3243C31 29.41 28.2606 31.9205 24.8486 31.9982L24.6857 32H22.8286V28.973H24.6857L24.8388 28.9696C26.4087 28.8986 27.6571 27.7414 27.6571 26.3243C27.6571 24.8615 26.3268 23.6757 24.6857 23.6757H19.8571V32C17.8058 32 16.1429 30.3059 16.1429 28.2162V23.6757H10.9429V23.6653C7.62847 23.4925 5 21.0225 5 18C5 16.1399 5.99541 14.4887 7.53362 13.4535C6.41993 12.4501 5.74286 11.1266 5.74286 9.67568C5.74286 6.54109 8.90245 4 12.8 4ZM11.3143 15.3514C9.67321 15.3514 8.34286 16.5372 8.34286 18C8.34286 19.4171 9.59128 20.5743 11.1612 20.6453L11.3143 20.6486H16.1429V15.3514H11.3143ZM19.8571 20.6486H23.9429L24.0959 20.6453C25.6659 20.5743 26.9143 19.4171 26.9143 18C26.9143 16.5372 25.5839 15.3514 23.9429 15.3514H19.8571V20.6486ZM12.0571 7.02703C10.4161 7.02703 9.08571 8.21287 9.08571 9.67568C9.08571 11.0927 10.3341 12.25 11.9041 12.321L12.0571 12.3243H16.1429V9.67568C16.1429 9.60773 16.1472 9.74251 16.1429 9.67568C16.1429 9.73493 16.1472 9.61739 16.1429 9.67568C16.1429 8.21287 14.8125 7.02703 13.1714 7.02703H12.0571Z" fill="black"/>
</svg>
