<svg width="26" height="29" viewBox="0 0 26 29" fill="none" xmlns="http://www.w3.org/2000/svg">
<path fill-rule="evenodd" clip-rule="evenodd" d="M7.8 0.5C11.5394 0.500001 14.615 2.83915 14.8571 5.7973V8.82432H18.9429C22.4301 8.82432 25.2571 11.3654 25.2571 14.5C25.2571 15.9882 24.6195 17.3421 23.577 18.3544C25.0521 19.3933 26 21.0093 26 22.8243C26 25.91 23.2606 28.4205 19.8486 28.4982L19.6857 28.5H17.8286V25.473H19.6857L19.8388 25.4696C21.4087 25.3986 22.6571 24.2414 22.6571 22.8243C22.6571 21.3615 21.3268 20.1757 19.6857 20.1757H14.8571V28.5C12.8058 28.5 11.1429 26.8059 11.1429 24.7162V20.1757H5.94286V20.1653C2.62847 19.9925 -1.00331e-07 17.5225 0 14.5C3.19256e-07 12.6399 0.995409 10.9887 2.53362 9.95355C1.41993 8.9501 0.742857 7.62656 0.742857 6.17568C0.742858 3.04109 3.90245 0.5 7.8 0.5ZM6.31429 11.8514C4.67321 11.8514 3.34286 13.0372 3.34286 14.5C3.34286 15.9171 4.59128 17.0743 6.16122 17.1453L6.31429 17.1486H11.1429V11.8514H6.31429ZM14.8571 17.1486H18.9429L19.0959 17.1453C20.6659 17.0743 21.9143 15.9171 21.9143 14.5C21.9143 13.0372 20.5839 11.8514 18.9429 11.8514H14.8571V17.1486ZM7.05714 3.52703C5.41607 3.52703 4.08571 4.71287 4.08571 6.17568C4.08571 7.59272 5.33413 8.74999 6.90407 8.821L7.05714 8.82432H11.1429V6.17568C11.1429 6.10773 11.1472 6.24251 11.1429 6.17568C11.1429 6.23493 11.1472 6.11739 11.1429 6.17568C11.1429 4.71287 9.8125 3.52703 8.17143 3.52703H7.05714Z" fill="black"/>
</svg>
