<svg width="80" height="80" viewBox="0 0 80 80" fill="none" xmlns="http://www.w3.org/2000/svg">
<path d="M36.6667 56.6663L43.3334 63.333C43.99 63.9896 44.7695 64.5105 45.6274 64.8658C46.4853 65.2212 47.4048 65.4041 48.3334 65.4041C49.262 65.4041 50.1815 65.2212 51.0394 64.8658C51.8973 64.5105 52.6768 63.9896 53.3334 63.333C53.99 62.6764 54.5109 61.8969 54.8662 61.039C55.2216 60.1811 55.4045 59.2616 55.4045 58.333C55.4045 57.4044 55.2216 56.4849 54.8662 55.627C54.5109 54.7691 53.99 53.9896 53.3334 53.333M46.6675 46.6664L55.0008 54.9997C56.3269 56.3258 58.1255 57.0708 60.0008 57.0708C61.8762 57.0708 63.6748 56.3258 65.0008 54.9997C66.3269 53.6736 67.0719 51.8751 67.0719 49.9997C67.0719 48.1244 66.3269 46.3258 65.0008 44.9997L52.0675 32.0664C50.1925 30.1937 47.6508 29.1419 45.0008 29.1419C42.3508 29.1419 39.8092 30.1937 37.9342 32.0664L35.0008 34.9997C33.6748 36.3258 31.8762 37.0708 30.0008 37.0708C28.1255 37.0708 26.3269 36.3258 25.0008 34.9997C23.6748 33.6736 22.9298 31.8751 22.9298 29.9997C22.9298 28.1244 23.6748 26.3258 25.0008 24.9997L34.3675 15.6331C37.4083 12.6002 41.3738 10.6682 45.6363 10.143C49.8988 9.6177 54.2147 10.5292 57.9008 12.7331L59.4675 13.6664C60.8868 14.523 62.5743 14.8201 64.2008 14.4997L70.0008 13.3331M70.0001 9.99967L73.3334 46.6663H66.6668M10.0001 9.99967L6.66675 46.6663L28.3334 68.333C29.6595 69.6591 31.4581 70.4041 33.3334 70.4041C35.2088 70.4041 37.0073 69.6591 38.3334 68.333C39.6595 67.0069 40.4045 65.2084 40.4045 63.333C40.4045 61.4576 39.6595 59.6591 38.3334 58.333M10.0001 13.333H36.6667" stroke="#F0FDFA" stroke-width="4" stroke-linecap="round" stroke-linejoin="round"/>
</svg>
