<svg width="80" height="80" viewBox="0 0 80 80" fill="none" xmlns="http://www.w3.org/2000/svg">
<path d="M60 70C60 62.9276 57.1904 56.1448 52.1895 51.1438C47.1885 46.1428 40.4057 43.3333 33.3333 43.3333M33.3333 43.3333C26.2609 43.3333 19.4781 46.1428 14.4771 51.1438C9.47614 56.1448 6.66663 62.9276 6.66663 70M33.3333 43.3333C42.538 43.3333 50 35.8714 50 26.6667C50 17.4619 42.538 10 33.3333 10C24.1285 10 16.6666 17.4619 16.6666 26.6667C16.6666 35.8714 24.1285 43.3333 33.3333 43.3333ZM73.3335 66.6665C73.3335 55.4332 66.6668 44.9998 60.0001 39.9998C62.1915 38.3557 63.9438 36.1968 65.102 33.7141C66.2602 31.2313 66.7885 28.5014 66.6402 25.7658C66.4919 23.0303 65.6715 20.3735 64.2517 18.0305C62.8319 15.6875 60.8564 13.7307 58.5001 12.3332" stroke="#F0FDFA" stroke-width="4" stroke-linecap="round" stroke-linejoin="round"/>
</svg>
